<mxfile host="app.diagrams.net" agent="Mozilla/5.0 (Windows NT 10.0; Win64; x64) AppleWebKit/537.36 (KHTML, like Gecko) Chrome/130.0.0.0 Safari/537.36 Edg/130.0.0.0" version="24.8.3">
  <diagram name="Page-1" id="Owj253hstnNMVGkitStq">
    <mxGraphModel dx="1042" dy="617" grid="0" gridSize="10" guides="1" tooltips="1" connect="1" arrows="1" fold="1" page="0" pageScale="1" pageWidth="850" pageHeight="1100" math="0" shadow="0">
      <root>
        <mxCell id="0" />
        <mxCell id="1" parent="0" />
        <mxCell id="35OgEMqozP8EejBYkB2C-12" value="&lt;b&gt;&lt;font style=&quot;font-size: 24px;&quot;&gt;User&lt;/font&gt;&lt;/b&gt;" style="ellipse;whiteSpace=wrap;html=1;" vertex="1" parent="1">
          <mxGeometry x="115" y="192" width="193" height="83" as="geometry" />
        </mxCell>
        <mxCell id="35OgEMqozP8EejBYkB2C-22" value="" style="edgeStyle=none;curved=1;rounded=0;orthogonalLoop=1;jettySize=auto;html=1;fontSize=15;startSize=8;endSize=8;fontStyle=1" edge="1" parent="1" source="35OgEMqozP8EejBYkB2C-14" target="35OgEMqozP8EejBYkB2C-18">
          <mxGeometry relative="1" as="geometry">
            <Array as="points" />
          </mxGeometry>
        </mxCell>
        <mxCell id="35OgEMqozP8EejBYkB2C-45" value="User data stored" style="edgeLabel;html=1;align=center;verticalAlign=middle;resizable=0;points=[];fontSize=15;fontStyle=1" vertex="1" connectable="0" parent="35OgEMqozP8EejBYkB2C-22">
          <mxGeometry x="-0.1432" y="1" relative="1" as="geometry">
            <mxPoint as="offset" />
          </mxGeometry>
        </mxCell>
        <mxCell id="35OgEMqozP8EejBYkB2C-14" value="User management&amp;nbsp;" style="rounded=1;whiteSpace=wrap;html=1;fontStyle=1;fontSize=15;" vertex="1" parent="1">
          <mxGeometry x="500" y="57" width="131" height="60" as="geometry" />
        </mxCell>
        <mxCell id="35OgEMqozP8EejBYkB2C-15" value="Property listing&amp;nbsp;" style="rounded=1;whiteSpace=wrap;html=1;fontStyle=1;fontSize=15;" vertex="1" parent="1">
          <mxGeometry x="498" y="177" width="135" height="60" as="geometry" />
        </mxCell>
        <mxCell id="35OgEMqozP8EejBYkB2C-16" value="Communication&amp;nbsp;" style="rounded=1;whiteSpace=wrap;html=1;fontStyle=1;fontSize=15;" vertex="1" parent="1">
          <mxGeometry x="501" y="286" width="138" height="60" as="geometry" />
        </mxCell>
        <mxCell id="35OgEMqozP8EejBYkB2C-18" value="user database" style="shape=parallelogram;perimeter=parallelogramPerimeter;whiteSpace=wrap;html=1;fixedSize=1;fontStyle=1;fontSize=15;" vertex="1" parent="1">
          <mxGeometry x="854" y="67" width="217" height="60" as="geometry" />
        </mxCell>
        <mxCell id="35OgEMqozP8EejBYkB2C-19" value="Property database" style="shape=parallelogram;perimeter=parallelogramPerimeter;whiteSpace=wrap;html=1;fixedSize=1;fontStyle=1;fontSize=15;" vertex="1" parent="1">
          <mxGeometry x="835" y="177" width="204" height="60" as="geometry" />
        </mxCell>
        <mxCell id="35OgEMqozP8EejBYkB2C-20" value="Communictaion logs" style="shape=parallelogram;perimeter=parallelogramPerimeter;whiteSpace=wrap;html=1;fixedSize=1;fontStyle=1;fontSize=15;" vertex="1" parent="1">
          <mxGeometry x="823" y="291" width="190" height="60" as="geometry" />
        </mxCell>
        <mxCell id="35OgEMqozP8EejBYkB2C-29" value="" style="endArrow=classic;startArrow=classic;html=1;rounded=0;fontSize=15;startSize=8;endSize=8;curved=1;exitX=0.967;exitY=0.325;exitDx=0;exitDy=0;entryX=-0.018;entryY=0.643;entryDx=0;entryDy=0;entryPerimeter=0;exitPerimeter=0;fontStyle=1" edge="1" parent="1" source="35OgEMqozP8EejBYkB2C-12" target="35OgEMqozP8EejBYkB2C-15">
          <mxGeometry width="50" height="50" relative="1" as="geometry">
            <mxPoint x="511" y="290" as="sourcePoint" />
            <mxPoint x="561" y="240" as="targetPoint" />
          </mxGeometry>
        </mxCell>
        <mxCell id="35OgEMqozP8EejBYkB2C-42" value="view&amp;nbsp;&lt;div style=&quot;font-size: 15px;&quot;&gt;edit&amp;nbsp;&lt;/div&gt;&lt;div style=&quot;font-size: 15px;&quot;&gt;add&lt;/div&gt;" style="edgeLabel;html=1;align=center;verticalAlign=middle;resizable=0;points=[];fontSize=15;fontStyle=1" vertex="1" connectable="0" parent="35OgEMqozP8EejBYkB2C-29">
          <mxGeometry x="-0.1006" relative="1" as="geometry">
            <mxPoint x="10" y="-11" as="offset" />
          </mxGeometry>
        </mxCell>
        <mxCell id="35OgEMqozP8EejBYkB2C-30" value="" style="endArrow=classic;startArrow=classic;html=1;rounded=0;fontSize=15;startSize=8;endSize=8;curved=1;exitX=1;exitY=0.5;exitDx=0;exitDy=0;entryX=0;entryY=0.5;entryDx=0;entryDy=0;fontStyle=1" edge="1" parent="1" source="35OgEMqozP8EejBYkB2C-15" target="35OgEMqozP8EejBYkB2C-19">
          <mxGeometry width="50" height="50" relative="1" as="geometry">
            <mxPoint x="511" y="290" as="sourcePoint" />
            <mxPoint x="561" y="240" as="targetPoint" />
          </mxGeometry>
        </mxCell>
        <mxCell id="35OgEMqozP8EejBYkB2C-47" value="Property data stored&lt;div style=&quot;font-size: 13px;&quot;&gt;/updated&amp;nbsp;&lt;/div&gt;" style="edgeLabel;html=1;align=center;verticalAlign=middle;resizable=0;points=[];fontSize=13;fontStyle=1" vertex="1" connectable="0" parent="35OgEMqozP8EejBYkB2C-30">
          <mxGeometry x="-0.2" relative="1" as="geometry">
            <mxPoint x="16" as="offset" />
          </mxGeometry>
        </mxCell>
        <mxCell id="35OgEMqozP8EejBYkB2C-31" value="" style="endArrow=classic;startArrow=classic;html=1;rounded=0;fontSize=15;startSize=8;endSize=8;curved=1;exitX=0.979;exitY=0.692;exitDx=0;exitDy=0;exitPerimeter=0;entryX=0;entryY=0.5;entryDx=0;entryDy=0;fontStyle=1" edge="1" parent="1" source="35OgEMqozP8EejBYkB2C-12" target="35OgEMqozP8EejBYkB2C-16">
          <mxGeometry width="50" height="50" relative="1" as="geometry">
            <mxPoint x="298.999" y="254.00499999999997" as="sourcePoint" />
            <mxPoint x="507.64" y="324" as="targetPoint" />
          </mxGeometry>
        </mxCell>
        <mxCell id="35OgEMqozP8EejBYkB2C-43" value="Send message" style="edgeLabel;html=1;align=center;verticalAlign=middle;resizable=0;points=[];fontSize=15;fontStyle=1" vertex="1" connectable="0" parent="35OgEMqozP8EejBYkB2C-31">
          <mxGeometry x="-0.4187" y="1" relative="1" as="geometry">
            <mxPoint as="offset" />
          </mxGeometry>
        </mxCell>
        <mxCell id="35OgEMqozP8EejBYkB2C-32" value="" style="endArrow=classic;startArrow=classic;html=1;rounded=0;fontSize=15;startSize=8;endSize=8;curved=1;entryX=0;entryY=0.5;entryDx=0;entryDy=0;exitX=1;exitY=0.75;exitDx=0;exitDy=0;fontStyle=1" edge="1" parent="1" source="35OgEMqozP8EejBYkB2C-16" target="35OgEMqozP8EejBYkB2C-20">
          <mxGeometry width="50" height="50" relative="1" as="geometry">
            <mxPoint x="511" y="290" as="sourcePoint" />
            <mxPoint x="561" y="240" as="targetPoint" />
          </mxGeometry>
        </mxCell>
        <mxCell id="35OgEMqozP8EejBYkB2C-49" value="Communication logs&amp;nbsp;&lt;div style=&quot;font-size: 13px;&quot;&gt;or message retrieves&lt;/div&gt;" style="edgeLabel;html=1;align=center;verticalAlign=middle;resizable=0;points=[];fontSize=13;fontStyle=1" vertex="1" connectable="0" parent="35OgEMqozP8EejBYkB2C-32">
          <mxGeometry x="-0.2374" y="3" relative="1" as="geometry">
            <mxPoint x="13" y="2" as="offset" />
          </mxGeometry>
        </mxCell>
        <mxCell id="35OgEMqozP8EejBYkB2C-33" value="D1" style="text;html=1;align=center;verticalAlign=middle;whiteSpace=wrap;rounded=0;fontSize=15;strokeWidth=4;fontStyle=1" vertex="1" parent="1">
          <mxGeometry x="921" y="67" width="60" height="30" as="geometry" />
        </mxCell>
        <mxCell id="35OgEMqozP8EejBYkB2C-34" value="D2" style="text;html=1;align=center;verticalAlign=middle;whiteSpace=wrap;rounded=0;fontSize=15;fontStyle=1" vertex="1" parent="1">
          <mxGeometry x="893" y="177" width="60" height="30" as="geometry" />
        </mxCell>
        <mxCell id="35OgEMqozP8EejBYkB2C-35" value="D3" style="text;html=1;align=center;verticalAlign=middle;whiteSpace=wrap;rounded=0;fontSize=15;fontStyle=1" vertex="1" parent="1">
          <mxGeometry x="875" y="288" width="60" height="30" as="geometry" />
        </mxCell>
        <mxCell id="35OgEMqozP8EejBYkB2C-38" value="" style="endArrow=classic;html=1;rounded=0;fontSize=15;startSize=8;endSize=8;curved=1;exitX=0.668;exitY=-0.002;exitDx=0;exitDy=0;exitPerimeter=0;fontStyle=1" edge="1" parent="1" source="35OgEMqozP8EejBYkB2C-12">
          <mxGeometry relative="1" as="geometry">
            <mxPoint x="297" y="360" as="sourcePoint" />
            <mxPoint x="502" y="77" as="targetPoint" />
          </mxGeometry>
        </mxCell>
        <mxCell id="35OgEMqozP8EejBYkB2C-39" value="Registration&lt;div style=&quot;font-size: 15px;&quot;&gt;Login&lt;/div&gt;&lt;div style=&quot;font-size: 15px;&quot;&gt;Profile update data&lt;/div&gt;" style="edgeLabel;resizable=0;html=1;fontSize=15;;align=center;verticalAlign=middle;fontStyle=1" connectable="0" vertex="1" parent="35OgEMqozP8EejBYkB2C-38">
          <mxGeometry relative="1" as="geometry" />
        </mxCell>
      </root>
    </mxGraphModel>
  </diagram>
</mxfile>
